<svg id="visual" viewBox="0 0 900 600" width="900" height="600" xmlns="http://www.w3.org/2000/svg" xmlns:xlink="http://www.w3.org/1999/xlink" version="1.1"><path d="M0 61L82 61L82 43L164 43L164 97L245 97L245 91L327 91L327 79L409 79L409 49L491 49L491 37L573 37L573 43L655 43L655 43L736 43L736 61L818 61L818 43L900 43L900 85L900 0L900 0L818 0L818 0L736 0L736 0L655 0L655 0L573 0L573 0L491 0L491 0L409 0L409 0L327 0L327 0L245 0L245 0L164 0L164 0L82 0L82 0L0 0Z" fill="#fa7268"></path><path d="M0 169L82 169L82 313L164 313L164 319L245 319L245 283L327 283L327 205L409 205L409 319L491 319L491 223L573 223L573 211L655 211L655 277L736 277L736 337L818 337L818 157L900 157L900 283L900 83L900 41L818 41L818 59L736 59L736 41L655 41L655 41L573 41L573 35L491 35L491 47L409 47L409 77L327 77L327 89L245 89L245 95L164 95L164 41L82 41L82 59L0 59Z" fill="#ea5e66"></path><path d="M0 277L82 277L82 367L164 367L164 403L245 403L245 385L327 385L327 319L409 319L409 415L491 415L491 373L573 373L573 337L655 337L655 415L736 415L736 433L818 433L818 319L900 319L900 361L900 281L900 155L818 155L818 335L736 335L736 275L655 275L655 209L573 209L573 221L491 221L491 317L409 317L409 203L327 203L327 281L245 281L245 317L164 317L164 311L82 311L82 167L0 167Z" fill="#d84a64"></path><path d="M0 517L82 517L82 469L164 469L164 505L245 505L245 481L327 481L327 487L409 487L409 547L491 547L491 499L573 499L573 475L655 475L655 493L736 493L736 547L818 547L818 541L900 541L900 529L900 359L900 317L818 317L818 431L736 431L736 413L655 413L655 335L573 335L573 371L491 371L491 413L409 413L409 317L327 317L327 383L245 383L245 401L164 401L164 365L82 365L82 275L0 275Z" fill="#c53762"></path><path d="M0 601L82 601L82 601L164 601L164 601L245 601L245 601L327 601L327 601L409 601L409 601L491 601L491 601L573 601L573 601L655 601L655 601L736 601L736 601L818 601L818 601L900 601L900 601L900 527L900 539L818 539L818 545L736 545L736 491L655 491L655 473L573 473L573 497L491 497L491 545L409 545L409 485L327 485L327 479L245 479L245 503L164 503L164 467L82 467L82 515L0 515Z" fill="#b0235f"></path></svg>